<?xml version="1.0" encoding="utf-8"?>
<!-- Generator: Adobe Illustrator 23.0.1, SVG Export Plug-In . SVG Version: 6.00 Build 0)  -->
<svg version="1.1" id="Layer_1" xmlns="http://www.w3.org/2000/svg" xmlns:xlink="http://www.w3.org/1999/xlink" x="0px" y="0px"
	 viewBox="0 0 619.2 688.8" style="enable-background:new 0 0 619.2 688.8;" xml:space="preserve">
<style type="text/css">
	.st0{fill:#2F9C95;}
	.st1{fill:none;stroke:#2F9C95;stroke-width:2;stroke-linecap:round;stroke-linejoin:round;stroke-dasharray:12;}
</style>
<title>main</title>
<g>
	<path class="st0" d="M449.5,548c-2.5,6-5.1,12-7.7,18c-2.6,6-5.2,12-7.9,17.9c-5.3,11.9-10.6,23.8-16.1,35.7
		c-0.2,0.5-0.8,0.7-1.3,0.5l0,0l-16.1-7.4l-16.1-7.5l-16-7.6c-5.3-2.6-10.6-5.1-15.9-7.8c5.5,2.3,10.9,4.6,16.3,6.9l16.3,7.1
		l16.2,7.2l16.2,7.3l-1.3,0.5c5.4-11.9,10.9-23.7,16.4-35.5c2.8-5.9,5.6-11.8,8.4-17.7C443.7,559.7,446.5,553.9,449.5,548z"/>
</g>
<g>
	<path class="st0" d="M506,253.2c5.5,2.3,10.9,4.6,16.3,6.9l16.3,7.1c10.8,4.8,21.6,9.6,32.4,14.5c0.5,0.2,0.7,0.8,0.5,1.3l0,0
		c-4.9,10.7-9.9,21.5-14.9,32.2l-7.6,16c-2.6,5.3-5.1,10.6-7.8,15.9c2.2-5.5,4.6-10.9,6.9-16.3l7.1-16.3
		c4.8-10.8,9.6-21.6,14.5-32.4l0.5,1.3c-10.7-4.9-21.5-9.9-32.2-14.9l-16-7.6C516.7,258.4,511.3,255.9,506,253.2z"/>
</g>
<g>
	<path class="st0" d="M204.6,193.6c2.3-5.5,4.6-10.9,6.9-16.3l7.1-16.3c4.8-10.8,9.6-21.6,14.5-32.4c0.2-0.5,0.8-0.7,1.3-0.5l0,0
		c10.7,4.9,21.5,9.9,32.2,14.9l16,7.6c5.3,2.6,10.6,5.1,15.9,7.8c-5.5-2.2-10.9-4.6-16.3-6.9l-16.3-7.1
		c-10.8-4.8-21.6-9.6-32.4-14.5l1.3-0.5c-4.9,10.7-9.9,21.5-14.9,32.2l-7.6,16C209.8,183,207.3,188.3,204.6,193.6z"/>
</g>
<g>
	<path class="st0" d="M145,495c-5.5-2.3-10.9-4.6-16.3-6.9l-16.3-7.1c-10.8-4.8-21.6-9.6-32.4-14.5c-0.5-0.2-0.7-0.8-0.5-1.3l0,0
		c4.9-10.7,9.9-21.5,14.9-32.2l7.6-16c2.6-5.3,5.1-10.6,7.8-15.9c-2.2,5.5-4.6,10.9-6.9,16.3l-7.1,16.3
		c-4.8,10.8-9.6,21.6-14.5,32.4l-0.5-1.3c10.7,4.9,21.5,9.9,32.2,14.9l16,7.6C134.4,489.8,139.7,492.4,145,495z"/>
</g>
<polygon class="st1" points="219.8,605.8 93.9,268.4 431.3,142.5 557.2,479.9 472.2,511.6 "/>
</svg>
