<svg xmlns="http://www.w3.org/2000/svg" viewBox="0 0 282.3 285.83"><defs><style>.cls-1{fill:none;stroke:#2f9c95;stroke-linecap:round;stroke-linejoin:round;stroke-width:2px;}</style></defs><title>squareB</title><g id="Layer_2" data-name="Layer 2"><polyline class="cls-1" points="98.32 199.68 107.96 149.73 156.04 133.1 194.48 166.43 184.84 216.38"/><polyline class="cls-1" points="184.84 216.38 146.4 183.06 156.15 133.13"/><line class="cls-1" x1="146.4" y1="183.06" x2="98.32" y2="199.68"/><polygon class="cls-1" points="127.62 49.7 117.75 99.61 156.04 133.1 204.19 116.69 214.06 66.79 175.77 33.29 127.62 49.7"/><polyline class="cls-1" points="232.94 199.96 184.92 216.6 194.56 166.65 242.63 150.02 232.94 199.96"/><polyline class="cls-1" points="214.21 66.61 204.35 116.52 242.63 150.02"/><polyline class="cls-1" points="127.62 49.7 117.98 99.65 69.9 116.28"/><polyline class="cls-1" points="60.09 166.2 98.32 199.68 108.19 149.78 69.9 116.28 60.09 166.2"/><polyline class="cls-1" points="214.06 66.79 165.91 83.2 156.15 133.13"/><line class="cls-1" x1="165.91" y1="83.2" x2="127.62" y2="49.7"/></g></svg>