<?xml version="1.0" encoding="utf-8"?>
<!-- Generator: Adobe Illustrator 23.0.1, SVG Export Plug-In . SVG Version: 6.00 Build 0)  -->
<svg version="1.1" id="Capa_1" xmlns="http://www.w3.org/2000/svg" xmlns:xlink="http://www.w3.org/1999/xlink" x="0px" y="0px"
	 viewBox="0 0 18.8 18.8" style="enable-background:new 0 0 18.8 18.8;" xml:space="preserve">
<style type="text/css">
	.st0{fill:#8CBFE5;}
</style>
<g>
	<g>
		<path class="st0" d="M14.2,1.6l-1.8-1.5C12.3,0,12.1,0,12,0H6.8C6.6,0,6.5,0,6.4,0.1L4.6,1.8C4.5,1.9,4.4,2,4.4,2.2v6.5
			C4.4,9.4,5,10,5.7,10h7.4c0.7,0,1.3-0.6,1.3-1.3V2C14.4,1.8,14.3,1.7,14.2,1.6z M13.3,4c0,0.1-0.1,0.2-0.2,0.2H5.7
			C5.6,4.1,5.5,4.1,5.5,4V2.4L7,1.1h4.8l1.5,1.2V4L13.3,4z"/>
		<polygon class="st0" points="5.8,15 6,15 6.3,18.8 6.9,18.8 7.2,15 7.5,15 7.5,10.4 5.8,10.4 		"/>
		<polygon class="st0" points="8.6,15 8.9,15 9.2,18.8 9.8,18.8 10.1,15 10.4,15 10.4,10.4 8.6,10.4 		"/>
		<polygon class="st0" points="11.4,15 11.7,15 12,18.8 12.6,18.8 12.9,15 13.2,15 13.2,10.4 11.4,10.4 		"/>
		<circle class="st0" cx="9.4" cy="2.5" r="1"/>
	</g>
</g>
</svg>
