<?xml version="1.0" encoding="utf-8"?>
<!-- Generator: Adobe Illustrator 23.0.1, SVG Export Plug-In . SVG Version: 6.00 Build 0)  -->
<svg version="1.1" id="Capa_1" xmlns="http://www.w3.org/2000/svg" xmlns:xlink="http://www.w3.org/1999/xlink" x="0px" y="0px"
	 viewBox="0 0 351 351" style="enable-background:new 0 0 351 351;" xml:space="preserve">
<style type="text/css">
	.st0{fill:#8CBFE5;}
</style>
<g>
	<path class="st0" d="M178.3,201.6l-16.2,16.2l7.8,7.8c1,1,1.5,2.3,1.5,3.7s-0.5,2.7-1.5,3.7l-23.3,23.4l-49.9-50l23.3-23.3
		c1.9-1.9,5.5-1.9,7.4,0l5.4,5.4l16.2-16.2L178.3,201.6z M51.7,251.3c-1,1-1.5,2.3-1.5,3.7s0.5,2.7,1.5,3.7l16.9,16.9L0.7,343.5
		l7.5,7.5l67.9-67.9l18.2,18.1c1.9,1.9,5.5,1.9,7.4,0l36.9-36.9l-50-49.9L51.7,251.3z M179.6,123.5c-2,2-2,5.4,0,7.4l5.4,5.4
		l-27.9,27.9l29.3,29.3l27.9-27.8l7.8,7.8c1.8,1.8,5.6,1.9,7.4,0l5.9-5.9l-49.9-49.9L179.6,123.5z M193.5,109.6l49.9,49.9l23.9-23.9
		l-49.9-49.9L193.5,109.6z M278.9,78.8l71.4-71.4L342.7,0l-71.4,71.4l-16.1-16.1c-1.9-1.9-5.5-1.8-7.4,0l-22.4,22.4l49.9,49.9
		l22.4-22.4c1-1,1.5-2.3,1.5-3.7c0-1.4-0.6-2.7-1.5-3.7L278.9,78.8z"/>
</g>
</svg>
